<!-- <svg width="45" height="35" viewBox="0 0 45 35" fill="none" xmlns="http://www.w3.org/2000/svg"> -->
<svg width="52" height="56" viewBox="0 0 52 56" fill="none" xmlns="http://www.w3.org/2000/svg">
<!-- <g filter="url(#filter0_d_5_70)"> -->
<g>
<path d="M50.8073 43.9712C50.5713 43.9712 50.3506 44.1864 50.3472 44.1904L46.9358 47.0042C46.9063 47.0271 46.2128 47.5768 46.2128 48.5896C46.2128 48.8713 46.2128 49.6306 46.2128 49.995H4.94528V6.02385H46.2128C46.2128 6.02385 46.2128 7.01531 46.2128 7.37913C46.2128 8.19932 46.8915 8.78079 46.9212 8.80568L50.6154 11.8531C50.6209 11.8574 50.751 11.9578 50.9009 11.9578C51.0962 11.9578 51.3286 11.8034 51.3286 11.0685V4.62842C51.3286 2.03312 49.6018 0 47.3976 0H4.10151C1.83999 0.000200782 0 2.07648 0 4.62842V50.9881C0 53.6055 1.87784 55.8167 4.10083 55.8173C4.101 55.8173 4.10117 55.8173 4.10151 55.8173H47.3976C47.3979 55.8173 47.3981 55.8173 47.3985 55.8173C49.5657 55.8169 51.3286 53.6507 51.3286 50.9883V45.1761C51.3286 44.1802 51.0452 43.9712 50.8073 43.9712ZM51.153 11.2305C51.1557 11.1795 51.1581 11.1273 51.1581 11.0681C51.1581 11.1213 51.156 11.1761 51.153 11.2305ZM51.1444 11.3343C51.1458 11.3211 51.1475 11.3092 51.1487 11.2954C51.1475 11.3086 51.1458 11.3213 51.1444 11.3343ZM51.1562 45.047C51.1574 45.0903 51.1581 45.1337 51.1581 45.1761C51.1581 45.1309 51.1572 45.0887 51.1562 45.047ZM51.1538 44.9795C51.1541 44.9873 51.1547 44.9954 51.155 45.0034C51.1547 44.995 51.1541 44.9875 51.1538 44.9795Z" fill="#27569C"/>

<path d="M39.4836 11.8979L25.4287 0.303983C25.1878 0.10521 24.9641 0 24.7042 0C24.1402 0 23.6106 0.504364 23.6106 1.46832V8.35975H5.60909C4.76277 8.35975 4 9.1964 4 10.1929V16.1661C4 17.1626 4.76294 17.9973 5.60909 17.9973H23.6106V24.8923C23.6106 25.8563 24.1406 26.4301 24.7045 26.4301C24.7047 26.4301 24.6842 26.4301 24.6842 26.4301C24.9441 26.4301 25.1989 26.2904 25.4397 26.0914L39.4883 14.481C39.8657 14.1698 40.0796 13.6935 40.0797 13.1895C40.0799 12.6858 39.8611 12.2093 39.4836 11.8979Z" fill="#27569C"/>
</g>
<defs>
<filter id="filter0_d_5_70" x="0" y="0" width="44.0796" height="34.4301" filterUnits="userSpaceOnUse" color-interpolation-filters="sRGB">
<feFlood flood-opacity="0" result="BackgroundImageFix"/>
<feColorMatrix in="SourceAlpha" type="matrix" values="0 0 0 0 0 0 0 0 0 0 0 0 0 0 0 0 0 0 127 0" result="hardAlpha"/>
<feOffset dy="4"/>
<feGaussianBlur stdDeviation="2"/>
<feComposite in2="hardAlpha" operator="out"/>
<feColorMatrix type="matrix" values="0 0 0 0 0 0 0 0 0 0 0 0 0 0 0 0 0 0 0.25 0"/>
<feBlend mode="normal" in2="BackgroundImageFix" result="effect1_dropShadow_5_70"/>
<feBlend mode="normal" in="SourceGraphic" in2="effect1_dropShadow_5_70" result="shape"/>
</filter>
</defs>
</svg>
